<?xml version="1.0" encoding="UTF-8" standalone="no"?><!DOCTYPE svg PUBLIC "-//W3C//DTD SVG 1.1//EN" "http://www.w3.org/Graphics/SVG/1.1/DTD/svg11.dtd"><svg width="100%" height="100%" viewBox="0 0 40 40" version="1.1" xmlns="http://www.w3.org/2000/svg" xmlns:xlink="http://www.w3.org/1999/xlink" xml:space="preserve" xmlns:serif="http://www.serif.com/" style="fill-rule:evenodd;clip-rule:evenodd;stroke-linejoin:round;stroke-miterlimit:2;"><rect id="Artboard1" x="0" y="0" width="40" height="40" style="fill:none;"/><path d="M27.493,28.16c-0.936,-3.264 -3.945,-5.676 -7.493,-5.676c-3.548,0 -6.557,2.412 -7.493,5.676l14.986,0Zm-7.493,-6.897c-2.583,-0 -4.712,-2.129 -4.712,-4.712c0,-2.583 2.129,-4.711 4.712,-4.711c2.583,-0 4.712,2.128 4.712,4.711c0,2.583 -2.129,4.712 -4.712,4.712Zm7.352,1.391c1.986,-0 3.604,-1.618 3.604,-3.605c0,-1.987 -1.618,-3.605 -3.604,-3.605c-0.369,-0 -0.71,0.029 -1.022,0.114c0.056,0.34 0.085,0.653 0.085,0.993c0,1.817 -0.767,3.463 -1.987,4.627c0.653,0.88 1.703,1.476 2.924,1.476Zm-14.704,-7.21c-1.986,-0 -3.604,1.618 -3.604,3.605c-0,1.987 1.618,3.605 3.604,3.605c1.193,-0 2.243,-0.596 2.896,-1.476c-1.221,-1.164 -1.959,-2.81 -1.959,-4.627c-0,-0.34 -0,-0.653 0.057,-0.993c-0.312,-0.085 -0.653,-0.114 -0.994,-0.114Zm20.352,12.716c-0.71,-2.469 -2.98,-4.286 -5.648,-4.286c-0.284,-0 -0.597,0.029 -0.852,0.057c1.079,1.164 1.987,2.612 2.668,4.229l3.832,-0Zm-20.352,-4.286c-2.668,-0 -4.938,1.817 -5.648,4.286l3.832,-0c0.653,-1.617 1.561,-3.065 2.668,-4.229c-0.284,-0.028 -0.568,-0.057 -0.852,-0.057Z" style="fill:#ebebeb;fill-rule:nonzero;"/></svg>