<svg class="social-icon" xmlns="http://www.w3.org/2000/svg" width="25" height="25" viewBox="0 0 50 50" stroke-linejoin="round"><path d="M39.6 0l-29.2 0c-5.8 0-10.4 4.7-10.4 10.4l0 29.2c0 5.8 4.7 10.4 10.4 10.4l29.2 0c5.8 0 10.4-4.7 10.4-10.4l0-29.2c0-5.8-4.7-10.4-10.4-10.4Zm-22.9 39.6l-6.2 0 0-22.9 6.3 0 0 22.9Zm-3.1-25.6c-2 0-3.6-1.6-3.6-3.7 0-2 1.6-3.7 3.6-3.7 2 0 3.6 1.6 3.6 3.7 0 2-1.6 3.7-3.6 3.7Zm28.1 25.6l-6.2 0 0-11.7c0-7-8.3-6.5-8.3 0l0 11.7 -6.2 0 0-22.9 6.3 0 0 3.7c2.9-5.4 14.6-5.8 14.6 5.2l0 14.1Z" fill="#EBEFF3"/></svg>