<svg class="social-icon" xmlns="http://www.w3.org/2000/svg" width="25" height="25" viewBox="0 0 50 50" stroke-linejoin="round"><clipPath><rect y="4.7" width="50" height="40.6"/></clipPath><g clip-path="url(#_clip1)"><path d="M50 9.5c-1.8 0.8-3.8 1.4-5.9 1.6 2.1-1.3 3.7-3.3 4.5-5.7 -2 1.2-4.2 2-6.5 2.5 -1.9-2-4.5-3.2-7.5-3.2 -5.7 0-10.3 4.6-10.3 10.3 0 0.8 0.1 1.6 0.3 2.3 -8.5-0.4-16.1-4.5-21.1-10.7 -0.9 1.5-1.4 3.3-1.4 5.2 0 3.6 1.8 6.7 4.6 8.5 -1.7-0.1-3.3-0.5-4.6-1.3 0 0 0 0.1 0 0.1 0 5 3.5 9.1 8.2 10.1 -0.9 0.2-1.8 0.4-2.7 0.4 -0.7 0-1.3-0.1-1.9-0.2 1.3 4.1 5.1 7 9.6 7.1 -3.5 2.8-7.9 4.4-12.7 4.4 -0.8 0-1.6 0-2.4-0.1 4.5 2.9 9.9 4.6 15.7 4.6 18.9 0 29.2-15.6 29.2-29.2 0-0.4 0-0.9 0-1.3 2-1.4 3.7-3.3 5.1-5.3l0 0Z" fill="#EBEFF3"/></g></svg>